<svg width="26" height="25" viewBox="0 0 26 25" fill="none" xmlns="http://www.w3.org/2000/svg">
<path d="M18.9583 -0.0065918C17.7384 0.0123827 16.5452 0.352916 15.499 0.980619C14.4528 1.60832 13.5908 2.50097 13 3.56841C12.4092 2.50097 11.5472 1.60832 10.501 0.980619C9.45483 0.352916 8.26155 0.0123827 7.04166 -0.0065918C5.09701 0.0778981 3.26484 0.9286 1.94543 2.35966C0.62601 3.79072 -0.0734009 5.68581 -4.49456e-06 7.63091C-4.49456e-06 14.9705 11.869 23.4476 12.3738 23.8072L13 24.2503L13.6262 23.8072C14.131 23.4497 26 14.9705 26 7.63091C26.0734 5.68581 25.374 3.79072 24.0546 2.35966C22.7351 0.9286 20.903 0.0778981 18.9583 -0.0065918ZM13 21.5832C9.47591 18.9507 2.16666 12.4832 2.16666 7.63091C2.09261 6.26018 2.56356 4.91578 3.47681 3.89092C4.39005 2.86605 5.6715 2.24387 7.04166 2.16007C8.41183 2.24387 9.69327 2.86605 10.6065 3.89092C11.5198 4.91578 11.9907 6.26018 11.9167 7.63091H14.0833C14.0093 6.26018 14.4802 4.91578 15.3935 3.89092C16.3067 2.86605 17.5882 2.24387 18.9583 2.16007C20.3285 2.24387 21.6099 2.86605 22.5232 3.89092C23.4364 4.91578 23.9074 6.26018 23.8333 7.63091C23.8333 12.4853 16.5241 18.9507 13 21.5832Z" fill="#222222"/>
</svg>
