<svg width="26" height="25" viewBox="0 0 26 25" fill="none" xmlns="http://www.w3.org/2000/svg">
<path d="M18.9587 -0.0065918C17.7388 0.0123827 16.5455 0.352916 15.4994 0.980619C14.4532 1.60832 13.5912 2.50097 13.0004 3.56841C12.4096 2.50097 11.5475 1.60832 10.5014 0.980619C9.4552 0.352916 8.26192 0.0123827 7.04203 -0.0065918C5.09738 0.0778981 3.26521 0.9286 1.94579 2.35966C0.626376 3.79072 -0.0730347 5.68581 0.000361716 7.63091C0.000361716 14.9705 11.8694 23.4476 12.3742 23.8072L13.0004 24.2503L13.6265 23.8072C14.1314 23.4497 26.0004 14.9705 26.0004 7.63091C26.0738 5.68581 25.3743 3.79072 24.0549 2.35966C22.7355 0.9286 20.9033 0.0778981 18.9587 -0.0065918Z" fill="#F13005"/>
</svg>
